<svg width="193" height="30" viewBox="0 0 193 30" fill="none" xmlns="http://www.w3.org/2000/svg">
<path d="M17.828 18.52C18.22 19.6587 18.5933 20.5267 18.948 21.124C19.3213 21.7027 19.732 22.1227 20.18 22.384C20.6467 22.6267 21.2533 22.8133 22 22.944V23C20.3573 22.9067 18.8267 22.86 17.408 22.86C16.0453 22.86 14.4027 22.9067 12.48 23V22.944C13.6 22.832 14.384 22.6453 14.832 22.384C15.2987 22.104 15.532 21.6467 15.532 21.012C15.532 20.452 15.3453 19.612 14.972 18.492L13.656 14.488H7.132L5.788 17.792C5.32133 18.9307 5.088 19.8267 5.088 20.48C5.088 21.2267 5.37733 21.7867 5.956 22.16C6.53467 22.5333 7.47733 22.7947 8.784 22.944V23C7.01067 22.9067 5.52667 22.86 4.332 22.86C3.1 22.86 1.85867 22.9067 0.608 23V22.944C1.616 22.7573 2.47467 22.2813 3.184 21.516C3.89333 20.732 4.60267 19.4907 5.312 17.792L10.464 5.248C10.072 4.65067 9.53067 4.23067 8.84 3.988C8.168 3.74533 7.16 3.58667 5.816 3.512V3.428C9.81067 3.428 12.2373 3.232 13.096 2.84L13.152 2.896C13.1333 2.98933 13.124 3.13867 13.124 3.344C13.124 3.66133 13.18 4.06267 13.292 4.548C13.4227 5.03333 13.6373 5.74267 13.936 6.676L17.828 18.52ZM7.272 14.124H13.544L11.164 6.788C11.0147 6.34 10.8653 5.96667 10.716 5.668L7.272 14.124ZM20.2812 22.944C20.9345 22.8507 21.4199 22.72 21.7372 22.552C22.0545 22.3653 22.2785 22.0573 22.4092 21.628C22.5585 21.18 22.6332 20.5267 22.6332 19.668V6.172C22.6332 5.42533 22.5585 4.856 22.4092 4.464C22.2599 4.072 22.0172 3.80133 21.6812 3.652C21.3639 3.50267 20.8972 3.40933 20.2812 3.372V3.288C21.6065 3.21333 22.6892 3.05467 23.5292 2.812C24.3692 2.56933 24.8639 2.252 25.0132 1.86H25.0972V19.668C25.0972 20.5267 25.1625 21.18 25.2932 21.628C25.4239 22.0573 25.6479 22.3653 25.9652 22.552C26.3012 22.72 26.7959 22.8507 27.4492 22.944V23C26.2919 22.9067 25.0972 22.86 23.8652 22.86C22.6519 22.86 21.4572 22.9067 20.2812 23V22.944ZM39.5315 16.896C39.2702 18.968 38.5702 20.564 37.4315 21.684C36.2929 22.7853 34.9209 23.336 33.3155 23.336C32.3262 23.336 31.3649 23.112 30.4315 22.664C29.5169 22.1973 28.7515 21.46 28.1355 20.452C27.5382 19.4253 27.2395 18.1093 27.2395 16.504C27.2395 14.9173 27.5382 13.5453 28.1355 12.388C28.7329 11.2307 29.5169 10.3627 30.4875 9.784C31.4769 9.18667 32.5409 8.888 33.6795 8.888C35.0795 8.888 36.2555 9.35467 37.2075 10.288C38.1782 11.2213 38.7569 12.5467 38.9435 14.264H29.1995C29.1809 14.3947 29.1715 14.5813 29.1715 14.824C29.1715 16.112 29.4049 17.2507 29.8715 18.24C30.3569 19.2293 31.0009 19.9947 31.8035 20.536C32.6249 21.0587 33.5489 21.32 34.5755 21.32C35.8075 21.32 36.8715 20.9373 37.7675 20.172C38.6822 19.388 39.2515 18.296 39.4755 16.896H39.5315ZM33.0915 9.252C32.0462 9.252 31.1689 9.68133 30.4595 10.54C29.7689 11.3987 29.3489 12.5373 29.1995 13.956H35.1355C35.6582 13.956 36.0129 13.8907 36.1995 13.76C36.3862 13.6107 36.4795 13.34 36.4795 12.948C36.4795 12.388 36.3489 11.828 36.0875 11.268C35.8262 10.6893 35.4435 10.2133 34.9395 9.84C34.4355 9.448 33.8195 9.252 33.0915 9.252ZM50.1028 19.948C50.5508 20.5827 50.9148 21.0773 51.1948 21.432C51.4934 21.768 51.8481 22.0667 52.2588 22.328C52.6881 22.5893 53.2108 22.7853 53.8268 22.916L53.7988 22.972C52.2308 22.8973 50.8961 22.86 49.7948 22.86C48.5254 22.86 47.4801 22.8973 46.6588 22.972V22.916C47.0508 22.8413 47.3588 22.7013 47.5828 22.496C47.8254 22.272 47.9468 21.9827 47.9468 21.628C47.9468 21.1987 47.7508 20.7133 47.3588 20.172L45.0628 16.868L43.4108 19.024C42.6828 19.976 42.3188 20.7507 42.3188 21.348C42.3188 21.7773 42.5148 22.1227 42.9068 22.384C43.2988 22.6267 43.9054 22.804 44.7268 22.916V22.972L40.3308 22.944C39.0988 22.944 38.2214 22.972 37.6988 23.028V22.916C38.4268 22.8413 39.2294 22.524 40.1068 21.964C40.9841 21.404 42.0388 20.312 43.2708 18.688L44.8668 16.616L42.0668 12.612C41.2828 11.5107 40.5921 10.736 39.9948 10.288C39.4161 9.82133 38.7628 9.54133 38.0348 9.448V9.392C38.2588 9.41067 38.6134 9.42 39.0988 9.42C41.0588 9.42 42.4214 9.224 43.1868 8.832L43.2428 8.888C43.1868 8.96267 43.1588 9.07467 43.1588 9.224C43.1588 9.76533 43.6068 10.6707 44.5028 11.94L46.7148 15.076L48.7028 12.5C49.1321 11.9587 49.3468 11.4733 49.3468 11.044C49.3468 10.5587 49.0668 10.1667 48.5068 9.868C47.9654 9.55067 47.1441 9.34533 46.0428 9.252V9.196C48.0961 9.23333 49.5614 9.252 50.4388 9.252C51.6894 9.252 52.5668 9.23333 53.0708 9.196V9.252C51.7641 9.73733 50.5694 10.6613 49.4868 12.024L46.9108 15.356L50.1028 19.948ZM64.8151 16.896C64.5538 18.968 63.8538 20.564 62.7151 21.684C61.5765 22.7853 60.2045 23.336 58.5991 23.336C57.6098 23.336 56.6485 23.112 55.7151 22.664C54.8005 22.1973 54.0351 21.46 53.4191 20.452C52.8218 19.4253 52.5231 18.1093 52.5231 16.504C52.5231 14.9173 52.8218 13.5453 53.4191 12.388C54.0165 11.2307 54.8005 10.3627 55.7711 9.784C56.7605 9.18667 57.8245 8.888 58.9631 8.888C60.3631 8.888 61.5391 9.35467 62.4911 10.288C63.4618 11.2213 64.0405 12.5467 64.2271 14.264H54.4831C54.4645 14.3947 54.4551 14.5813 54.4551 14.824C54.4551 16.112 54.6885 17.2507 55.1551 18.24C55.6405 19.2293 56.2845 19.9947 57.0871 20.536C57.9085 21.0587 58.8325 21.32 59.8591 21.32C61.0911 21.32 62.1551 20.9373 63.0511 20.172C63.9658 19.388 64.5351 18.296 64.7591 16.896H64.8151ZM58.3751 9.252C57.3298 9.252 56.4525 9.68133 55.7431 10.54C55.0525 11.3987 54.6325 12.5373 54.4831 13.956H60.4191C60.9418 13.956 61.2965 13.8907 61.4831 13.76C61.6698 13.6107 61.7631 13.34 61.7631 12.948C61.7631 12.388 61.6325 11.828 61.3711 11.268C61.1098 10.6893 60.7271 10.2133 60.2231 9.84C59.7191 9.448 59.1031 9.252 58.3751 9.252ZM70.9311 9.224C71.3604 9.224 71.6777 9.23333 71.8831 9.252L75.2151 9.28C75.9617 9.28 77.1004 9.26133 78.6311 9.224V9.28C78.0337 9.41067 77.4644 9.84933 76.9231 10.596C76.3817 11.3427 75.7751 12.6213 75.1031 14.432L72.3311 22.048C71.5097 24.2693 70.7444 25.9213 70.0351 27.004C69.3257 28.0867 68.5231 28.88 67.6271 29.384L67.5991 29.328C67.9351 29.048 68.1031 28.7307 68.1031 28.376C68.1031 27.8907 67.8044 27.368 67.2071 26.808C66.6097 26.2667 65.7604 25.7533 64.6591 25.268V25.184C66.1524 25.8 67.3564 26.108 68.2711 26.108C69.1111 26.108 69.8017 25.8373 70.3431 25.296C70.8844 24.7547 71.3791 23.868 71.8271 22.636L71.9391 22.356C71.5471 22.0387 71.0991 21.88 70.5951 21.88C70.3524 21.88 70.0911 21.908 69.8111 21.964L65.8071 12.444C65.3404 11.324 64.9017 10.5493 64.4911 10.12C64.0991 9.69067 63.5577 9.43867 62.8671 9.364V9.28L63.8191 9.308C64.6404 9.308 65.3777 9.27067 66.0311 9.196C66.6844 9.10267 67.1697 8.98133 67.4871 8.832L67.5431 8.888C67.5244 8.92533 67.5151 9.00933 67.5151 9.14C67.5151 9.7 67.7764 10.6147 68.2991 11.884L72.2191 21.516L74.6271 14.796C75.0377 13.732 75.2431 12.8173 75.2431 12.052C75.2431 11.1373 74.8977 10.4653 74.2071 10.036C73.5351 9.60667 72.4431 9.35467 70.9311 9.28V9.224ZM106.847 19.052C106.903 19.9293 107.025 20.6013 107.211 21.068C107.398 21.5347 107.706 21.8893 108.135 22.132C108.565 22.356 109.199 22.524 110.039 22.636V22.692C108.135 22.692 106.651 22.72 105.587 22.776C104.542 22.832 103.086 22.9533 101.219 23.14V23.084C102.041 22.8973 102.647 22.664 103.039 22.384C103.45 22.104 103.73 21.7213 103.879 21.236C104.029 20.7507 104.085 20.0693 104.047 19.192L103.459 7.292C103.422 6.732 103.385 6.33067 103.347 6.088L95.4514 23.336H95.1994L87.3594 6.844L86.9954 6.088L86.3514 16.7C86.3141 17.484 86.2954 18.016 86.2954 18.296C86.2954 19.5467 86.4261 20.4893 86.6874 21.124C86.9674 21.7587 87.3874 22.1973 87.9474 22.44C88.5261 22.6827 89.3661 22.8413 90.4674 22.916V23C88.9368 22.9067 87.4901 22.86 86.1274 22.86C84.7274 22.86 83.3928 22.9067 82.1234 23V22.916C82.8888 22.804 83.5141 22.5893 83.9994 22.272C84.4848 21.9547 84.8861 21.3667 85.2034 20.508C85.5394 19.6307 85.7634 18.352 85.8754 16.672L86.5754 5.416C86.0901 4.70667 85.5488 4.22133 84.9514 3.96C84.3541 3.68 83.5328 3.49333 82.4874 3.4V3.344C83.0661 3.36267 83.8688 3.372 84.8954 3.372C86.9861 3.372 88.4234 3.288 89.2074 3.12L89.2634 3.176C89.3381 3.60533 89.4408 4.03466 89.5714 4.464C89.7208 4.89333 90.0288 5.59333 90.4954 6.564L96.5714 19.612L103.151 5.332C102.946 4.828 102.619 4.45467 102.171 4.212C101.742 3.96933 101.107 3.80133 100.267 3.708V3.624H101.695C103.077 3.624 104.243 3.596 105.195 3.54C106.166 3.484 107.463 3.36267 109.087 3.176V3.26C108.266 3.44667 107.65 3.68 107.239 3.96C106.847 4.24 106.577 4.62267 106.427 5.108C106.278 5.59333 106.231 6.26533 106.287 7.124L106.847 19.052ZM120.825 19.108C120.825 19.948 120.871 20.5733 120.965 20.984C121.077 21.376 121.301 21.656 121.637 21.824C121.973 21.992 122.505 22.0853 123.233 22.104V22.16C122.001 22.2533 120.946 22.44 120.069 22.72C119.191 22.9813 118.687 23.28 118.557 23.616H118.501L118.361 18.296C118.025 19.9573 117.381 21.2173 116.429 22.076C115.477 22.916 114.413 23.336 113.237 23.336C112.397 23.336 111.697 23.112 111.137 22.664C110.577 22.1973 110.297 21.5627 110.297 20.76C110.297 19.808 110.679 18.94 111.445 18.156C112.21 17.3533 113.199 16.6813 114.413 16.14C115.645 15.5987 116.951 15.2067 118.333 14.964V13.508C118.333 12.108 118.099 11.044 117.633 10.316C117.166 9.56933 116.485 9.196 115.589 9.196C114.581 9.196 113.75 9.74667 113.097 10.848C112.443 11.9307 112.051 13.6947 111.921 16.14H111.837C111.855 14.1427 111.762 12.752 111.557 11.968C111.351 11.184 110.969 10.792 110.409 10.792C110.166 10.792 109.895 10.848 109.597 10.96L109.569 10.904C110.558 10.3067 111.641 9.82133 112.817 9.448C114.011 9.07467 115.206 8.888 116.401 8.888C117.969 8.888 119.089 9.21467 119.761 9.868C120.451 10.5213 120.797 11.5667 120.797 13.004L120.825 19.108ZM114.833 22.02C115.505 22.02 116.102 21.7307 116.625 21.152C117.166 20.5733 117.586 19.8267 117.885 18.912C118.183 17.9973 118.333 17.0453 118.333 16.056V15.16C116.671 15.5147 115.337 16.112 114.329 16.952C113.339 17.7733 112.845 18.716 112.845 19.78C112.845 20.452 113.022 20.9933 113.377 21.404C113.75 21.8147 114.235 22.02 114.833 22.02ZM133.801 19.948C134.249 20.5827 134.613 21.0773 134.893 21.432C135.192 21.768 135.547 22.0667 135.957 22.328C136.387 22.5893 136.909 22.7853 137.525 22.916L137.497 22.972C135.929 22.8973 134.595 22.86 133.493 22.86C132.224 22.86 131.179 22.8973 130.357 22.972V22.916C130.749 22.8413 131.057 22.7013 131.281 22.496C131.524 22.272 131.645 21.9827 131.645 21.628C131.645 21.1987 131.449 20.7133 131.057 20.172L128.761 16.868L127.109 19.024C126.381 19.976 126.017 20.7507 126.017 21.348C126.017 21.7773 126.213 22.1227 126.605 22.384C126.997 22.6267 127.604 22.804 128.425 22.916V22.972L124.029 22.944C122.797 22.944 121.92 22.972 121.397 23.028V22.916C122.125 22.8413 122.928 22.524 123.805 21.964C124.683 21.404 125.737 20.312 126.969 18.688L128.565 16.616L125.765 12.612C124.981 11.5107 124.291 10.736 123.693 10.288C123.115 9.82133 122.461 9.54133 121.733 9.448V9.392C121.957 9.41067 122.312 9.42 122.797 9.42C124.757 9.42 126.12 9.224 126.885 8.832L126.941 8.888C126.885 8.96267 126.857 9.07467 126.857 9.224C126.857 9.76533 127.305 10.6707 128.201 11.94L130.413 15.076L132.401 12.5C132.831 11.9587 133.045 11.4733 133.045 11.044C133.045 10.5587 132.765 10.1667 132.205 9.868C131.664 9.55067 130.843 9.34533 129.741 9.252V9.196C131.795 9.23333 133.26 9.252 134.137 9.252C135.388 9.252 136.265 9.23333 136.769 9.196V9.252C135.463 9.73733 134.268 10.6613 133.185 12.024L130.609 15.356L133.801 19.948ZM139.602 8.188C139.602 7.292 139.49 6.60133 139.266 6.116C139.06 5.63067 138.706 5.28533 138.202 5.08C137.698 4.87467 136.979 4.78133 136.046 4.8V4.716C136.979 4.716 137.698 4.61333 138.202 4.408C138.706 4.20267 139.06 3.85733 139.266 3.372C139.49 2.88667 139.602 2.20533 139.602 1.328H139.686C139.686 2.20533 139.788 2.88667 139.994 3.372C140.218 3.85733 140.582 4.20267 141.086 4.408C141.59 4.61333 142.308 4.716 143.242 4.716V4.8C142.308 4.78133 141.59 4.87467 141.086 5.08C140.582 5.28533 140.218 5.63067 139.994 6.116C139.788 6.60133 139.686 7.292 139.686 8.188H139.602ZM135.99 22.944C136.643 22.8507 137.128 22.72 137.446 22.552C137.763 22.3653 137.987 22.0573 138.118 21.628C138.267 21.18 138.342 20.5267 138.342 19.668V12.64C138.342 11.8747 138.267 11.296 138.118 10.904C137.968 10.512 137.726 10.2413 137.39 10.092C137.072 9.94267 136.606 9.84933 135.99 9.812V9.728C137.315 9.65333 138.398 9.49467 139.238 9.252C140.078 9.00933 140.582 8.692 140.75 8.3H140.806V19.668C140.806 20.5267 140.871 21.18 141.002 21.628C141.151 22.0573 141.384 22.3653 141.702 22.552C142.019 22.72 142.504 22.8507 143.158 22.944V23C142 22.9067 140.806 22.86 139.574 22.86C138.36 22.86 137.166 22.9067 135.99 23V22.944ZM163.86 19.668C163.86 20.5267 163.925 21.18 164.056 21.628C164.187 22.0573 164.411 22.3653 164.728 22.552C165.064 22.72 165.559 22.8507 166.212 22.944V23C165.017 22.9067 163.813 22.86 162.6 22.86C161.387 22.86 160.192 22.9067 159.016 23V22.944C159.669 22.8507 160.155 22.7107 160.472 22.524C160.808 22.3373 161.041 22.0293 161.172 21.6C161.321 21.1707 161.396 20.5267 161.396 19.668V13.424C161.396 12.2293 161.219 11.352 160.864 10.792C160.528 10.232 160.052 9.952 159.436 9.952C158.839 9.952 158.232 10.2133 157.616 10.736C157 11.2587 156.487 12.0427 156.076 13.088C155.684 14.1147 155.488 15.3653 155.488 16.84V19.668C155.488 20.5267 155.553 21.18 155.684 21.628C155.833 22.0573 156.067 22.3653 156.384 22.552C156.72 22.72 157.215 22.8507 157.868 22.944V23C156.673 22.9067 155.469 22.86 154.256 22.86C153.043 22.86 151.848 22.9067 150.672 23V22.944C151.325 22.8507 151.811 22.72 152.128 22.552C152.445 22.3653 152.669 22.0573 152.8 21.628C152.949 21.18 153.024 20.5267 153.024 19.668V13.424C153.024 11.1093 152.38 9.952 151.092 9.952C150.495 9.952 149.888 10.2133 149.272 10.736C148.656 11.24 148.143 12.0147 147.732 13.06C147.34 14.1053 147.144 15.3653 147.144 16.84V19.668C147.144 20.5267 147.209 21.18 147.34 21.628C147.489 22.0573 147.723 22.3653 148.04 22.552C148.376 22.72 148.871 22.8507 149.524 22.944V23C148.329 22.9067 147.125 22.86 145.912 22.86C144.699 22.86 143.504 22.9067 142.328 23V22.944C142.981 22.8507 143.467 22.72 143.784 22.552C144.101 22.3653 144.325 22.0573 144.456 21.628C144.605 21.18 144.68 20.5267 144.68 19.668V12.36C144.68 11.7813 144.605 11.352 144.456 11.072C144.325 10.792 144.092 10.596 143.756 10.484C143.439 10.372 142.953 10.2973 142.3 10.26V10.204C143.588 10.1293 144.652 9.96133 145.492 9.7C146.332 9.42 146.827 9.07467 146.976 8.664L147.032 8.692L147.144 13.284V14.432C147.48 12.7147 148.124 11.3613 149.076 10.372C150.047 9.38267 151.148 8.888 152.38 8.888C153.351 8.888 154.107 9.23333 154.648 9.924C155.208 10.6147 155.488 11.6693 155.488 13.088V14.432C155.824 12.7147 156.468 11.3613 157.42 10.372C158.391 9.38267 159.492 8.888 160.724 8.888C161.695 8.888 162.46 9.23333 163.02 9.924C163.58 10.6147 163.86 11.6693 163.86 13.088V19.668ZM172.628 23.336C171.471 23.336 170.379 23.084 169.352 22.58C168.325 22.076 167.485 21.3013 166.832 20.256C166.197 19.192 165.88 17.876 165.88 16.308C165.88 14.7587 166.207 13.424 166.86 12.304C167.513 11.184 168.372 10.3347 169.436 9.756C170.519 9.17733 171.676 8.888 172.908 8.888C174.065 8.888 175.148 9.14 176.156 9.644C177.183 10.148 178.013 10.932 178.648 11.996C179.301 13.0413 179.628 14.348 179.628 15.916C179.628 17.4467 179.301 18.7813 178.648 19.92C177.995 21.04 177.127 21.8893 176.044 22.468C174.98 23.0467 173.841 23.336 172.628 23.336ZM172.852 23.028C174.047 23.028 175.008 22.4493 175.736 21.292C176.464 20.116 176.828 18.4547 176.828 16.308C176.828 14.012 176.445 12.2573 175.68 11.044C174.915 9.812 173.907 9.196 172.656 9.196C171.461 9.196 170.5 9.77467 169.772 10.932C169.063 12.0893 168.708 13.7507 168.708 15.916C168.708 18.1933 169.091 19.948 169.856 21.18C170.621 22.412 171.62 23.028 172.852 23.028ZM192.922 9.28C192.511 9.35467 192.157 9.49467 191.858 9.7C191.578 9.88667 191.261 10.26 190.906 10.82C190.57 11.38 190.178 12.2107 189.73 13.312L186.874 20.48L186.902 20.508L186.846 20.592L185.726 23.392H185.53L181.078 12.584C180.611 11.464 180.163 10.68 179.734 10.232C179.305 9.76533 178.791 9.48533 178.194 9.392V9.336L179.006 9.364C179.883 9.364 180.686 9.29867 181.414 9.168C182.142 9.03733 182.627 8.85067 182.87 8.608L182.926 8.664C182.851 8.79467 182.814 8.98133 182.814 9.224C182.814 9.896 183.113 10.96 183.71 12.416L186.762 20.144L189.254 13.648C189.553 12.92 189.702 12.2667 189.702 11.688C189.702 10.9227 189.394 10.3533 188.778 9.98C188.162 9.588 187.182 9.35467 185.838 9.28V9.224H186.426C187.957 9.26133 189.002 9.28 189.562 9.28C190.29 9.28 191.401 9.26133 192.894 9.224L192.922 9.28Z" fill="#121212"/>
</svg>
